<?xml version="1.0" encoding="UTF-8"?>
<svg width="90px" height="122px" viewBox="0 0 90 122" version="1.1" xmlns="http://www.w3.org/2000/svg" xmlns:xlink="http://www.w3.org/1999/xlink">
    <!-- Generator: Sketch 49.2 (51160) - http://www.bohemiancoding.com/sketch -->
    <title>Stringify logo</title>
    <desc>Created with Sketch.</desc>
    <defs></defs>
    <g id="Tries" stroke="none" stroke-width="1" fill="none" fill-rule="evenodd">
        <g id="Stringify-logo" fill="#78D8FF">
            <path d="M23.9915518,89.426898 C27.8493999,97.4977851 37.165429,101.380035 45.3957968,101.380035 C57.0087566,101.380035 69.0801226,96.8406305 69.0801226,85.7443082 C69.0801226,78.3467601 63.5792469,73.8073555 44.0205779,69.6042032 C24.4619089,65.4010508 4.59763573,59.0122592 4.59763573,33.9614711 C4.59763573,13.9544658 20.6418564,0 45.3957968,0 C65.7456937,0 78.0029003,10.5070482 83.1686231,23.356241 C87.2231537,25.4228189 90,29.6371258 90,34.5 C90,41.4035594 84.4035594,47 77.5,47 C70.5964406,47 65,41.4035594 65,34.5 C65,33.9878803 65.030797,33.4829536 65.0906401,32.986971 C62.842316,25.687411 55.8384938,20.6795096 45.3957968,20.6795096 C34.6996497,20.6795096 24.7675131,25.2189142 24.7675131,34.1295972 C24.7675131,42.1996497 31.9492119,45.0577933 48.1462347,48.7565674 C73.3585814,54.3047285 89.25,61.1978984 89.25,85.0718039 C89.25,107.600701 72.1361646,121.723292 45.3957968,121.723292 C27.9299441,121.723292 9.16884116,112.816127 3.62738575,93.3049265 C1.38518968,91.0456016 4.20612901e-16,87.934565 0,84.5 C-8.45442189e-16,77.5964406 5.59644063,72 12.5,72 C19.4035594,72 25,77.5964406 25,84.5 C25,86.2495166 24.6405803,87.9150863 23.9915518,89.426898 Z M77.5,26 C72.8055796,26 69,29.8055796 69,34.5 C69,39.1944204 72.8055796,43 77.5,43 C82.1944204,43 86,39.1944204 86,34.5 C86,29.8055796 82.1944204,26 77.5,26 Z M12.5,75.90625 C7.75380293,75.90625 3.90625,79.7538029 3.90625,84.5 C3.90625,89.2461971 7.75380293,93.09375 12.5,93.09375 C17.2461971,93.09375 21.09375,89.2461971 21.09375,84.5 C21.09375,79.7538029 17.2461971,75.90625 12.5,75.90625 Z M77.5,30 C79.9852814,30 82,32.0147186 82,34.5 C82,36.9852814 79.9852814,39 77.5,39 C75.0147186,39 73,36.9852814 73,34.5 C73,32.0147186 75.0147186,30 77.5,30 Z M12.5,79.8125 C15.0888348,79.8125 17.1875,81.9111652 17.1875,84.5 C17.1875,87.0888348 15.0888348,89.1875 12.5,89.1875 C9.91116524,89.1875 7.8125,87.0888348 7.8125,84.5 C7.8125,81.9111652 9.91116524,79.8125 12.5,79.8125 Z" id="Combined-Shape"></path>
        </g>
    </g>
</svg>