<?xml version="1.0" encoding="UTF-8"?>
<svg width="51px" height="78px" viewBox="0 0 51 78" version="1.1" xmlns="http://www.w3.org/2000/svg" xmlns:xlink="http://www.w3.org/1999/xlink">
    <!-- Generator: Sketch 49.2 (51160) - http://www.bohemiancoding.com/sketch -->
    <title>Path</title>
    <desc>Created with Sketch.</desc>
    <defs></defs>
    <g id="Page-1" stroke="none" stroke-width="1" fill="none" fill-rule="evenodd">
        <g id="3" fill="#78D8FF">
            <path d="M50.352,25.088 C50.352,39.536 41.7506027,49.952 28.5102495,49.952 L21.2820717,49.952 C16.024577,49.952 13.1980612,57.5871586 12.8025242,72.8574759 C12.7323192,75.5675547 10.5151887,77.728 7.80420069,77.728 L5,77.728 C2.23857625,77.728 7.69608782e-15,75.4894237 0,72.728 L1.77635684e-15,5 C1.43817996e-15,2.23857625 2.23857625,5.07265313e-16 5,0 L28.2203148,5.95079541e-14 C42.2338273,5.95079541e-14 50.352,9.856 50.352,25.088 Z M25,46 C36.5979797,46 46,36.5979797 46,25 C46,13.4020203 36.5979797,4 25,4 C13.4020203,4 4,13.4020203 4,25 C4,36.5979797 13.4020203,46 25,46 Z M25,41 C16.163444,41 9,33.836556 9,25 C9,16.163444 16.163444,9 25,9 C33.836556,9 41,16.163444 41,25 C41,33.836556 33.836556,41 25,41 Z M25.5,32 C29.0898509,32 32,29.0898509 32,25.5 C32,21.9101491 29.0898509,19 25.5,19 C21.9101491,19 19,21.9101491 19,25.5 C19,29.0898509 21.9101491,32 25.5,32 Z" id="Combined-Shape"></path>
        </g>
    </g>
</svg>