<?xml version="1.0" encoding="UTF-8"?>
<svg width="87px" height="66px" viewBox="0 0 87 66" version="1.1" xmlns="http://www.w3.org/2000/svg" xmlns:xlink="http://www.w3.org/1999/xlink">
    <!-- Generator: Sketch 49.2 (51160) - http://www.bohemiancoding.com/sketch -->
    <title>Shape</title>
    <desc>Created with Sketch.</desc>
    <defs></defs>
    <g id="Page-1" stroke="none" stroke-width="1" fill="none" fill-rule="evenodd">
        <path d="M79.24,58.58 C84.2025096,54.3915737 87.0459734,48.2136355 87,41.72 C86.91,33.28 86,24.72 81.24,18.91 C76.24,12.8 72.24,10.63 72.24,10.63 C72.5398942,10.4397064 72.8850539,10.3327069 73.24,10.32 C71.9511013,9.33695674 70.5474709,8.51425472 69.06,7.87 L68.78,7.77 C69.1691782,7.51878758 69.6174067,7.37397529 70.08,7.35 C68.6014627,6.69448744 67.0815359,6.13662419 65.53,5.68 L56.06,2.74 L55.95,2.74 C55.4318444,3.65428739 54.8434055,4.52691563 54.19,5.35 C54.496176,4.24467534 54.8702191,3.15928236 55.31,2.1 C55.3994084,1.86004933 55.466362,1.61232104 55.51,1.36 C55.63,0.48 52.79,0.15 50.96,0 C50.5055402,0.0328559569 50.1133373,0.330930144 49.96,0.76 C49.87,0.94 49.83,1.29 49.7,1.49 C49.6497443,1.56122925 49.5671368,1.60253303 49.48,1.6 C46.19,1.66 41.53,4.2 41.53,4.2 C35.69,7.54 34.38,11.59 34.21,12.11 L34.15,12.19 L26.49,17.58 C26.2599744,17.7468872 26.2065338,18.0675308 26.37,18.3 L28.47,21.21 C28.5355311,21.2959946 28.6434588,21.3383947 28.75,21.32 L33.75,20.46 C34.2737225,20.3697174 34.7977833,20.6177461 35.06,21.08 L35.33,21.56 C35.3707264,21.6320553 35.3787235,21.7180791 35.3519775,21.7964069 C35.3252314,21.8747348 35.266291,21.9379018 35.19,21.97 L33.79,22.53 L33.62,22.58 L31.41,23.07 C31.3103433,23.0951987 31.2314727,23.17127 31.2026906,23.2699514 C31.1739085,23.3686329 31.1995163,23.475177 31.27,23.55 C31.7552392,24.0611132 32.3148826,24.4960168 32.93,24.84 C33.74,25.2 37.86,25.1 41.06,28.13 L44.06,30.93 L46.44,33 C46.7547372,32.642328 46.9350672,32.1861993 46.95,31.71 C46.95,31.71 48.69,32.4 49.1,33.5 L50.25,32.22 C50.4244174,32.5798108 50.5424637,32.9643046 50.6,33.36 L51.14,36.86 C51.2753015,37.7499062 51.3288583,38.6503296 51.3,39.55 C59.58,25.18 67.45,24.34 67.45,24.34 C66.13,25.15 59.58,26.45 51.38,42.02 C51.1,42.37 50.79,43.02 50.59,43.28 L49.36,45.28 C49.278699,45.4148251 49.1443986,45.5091984 48.99,45.54 C47.18,45.89 35.21,48.38 32.05,47.32 C27.21,45.67 23.45,41.03 20.21,39.42 C19.7506573,39.0871752 19.1373056,39.059653 18.65,39.35 C17.6,40.02 15.91,41.65 15.65,43.27 C15.4,41.46 17.38,39.58 18.56,38.65 C18.6794323,38.5526351 18.8197496,38.4841876 18.97,38.45 C19.1027737,38.4327235 19.2372263,38.4327235 19.37,38.45 C19.6281161,38.4580788 19.8838737,38.5018268 20.13,38.58 C20.2542359,38.6149423 20.374798,38.6618276 20.49,38.72 C23.49,40.31 27.41,44.28 31.87,45.98 L34.49,45.52 L21,23.75 L0,27.27 L12.6,48.04 C13.0155574,48.7919155 13.8648891,49.1944424 14.71,49.04 L18.5,48.37 C21.6,53.22 23.8,58.42 27.5,60.43 C29.81,61.69 36,63.5 41.61,65.03 C44.5407304,65.8218221 47.5975362,66.0357985 50.61,65.66 L67.45,63.74 C71.8064802,63.2336479 75.9121912,61.4367464 79.24,58.58 Z M37.37,12.08 L36.9,10.96 C38.0716705,10.2031917 39.4593598,9.85187793 40.85,9.96 C40.85,9.96 38.13,12.47 37.37,12.08 Z" id="Shape" fill="#000000" fill-rule="nonzero"></path>
    </g>
</svg>